<svg viewBox="0 0 115 25" width="115" height="25" xmlns="http://www.w3.org/2000/svg">
<style>
svg {
  width: 100%;
  height: 100%;
  background: linear-gradient(to bottom, #0a0a0a, #1a1a2e);
}
.star {
  fill: #fff;
  opacity: 0;
  animation: twinkle 3s ease-in-out infinite, float 8s ease-in-out infinite;
}
.star:hover {
  fill: #facc15;
  transition: fill 0.3s ease, transform 0.3s ease;
  transform: scale(1.05);
}
.star:nth-child(2) { animation-delay: 0.5s, 1s; }
.star:nth-child(3) { animation-delay: 1s, 2s; }
.star:nth-child(4) { animation-delay: 1.5s, 3s; }
.star:nth-child(5) { animation-delay: 2s, 4s; }
.star:nth-child(6) { animation-delay: 2.5s, 0.5s; }
.star:nth-child(7) { animation-delay: 0.3s, 1.5s; }
.star:nth-child(8) { animation-delay: 1.8s, 2.5s; }
.star:nth-child(9) { animation-delay: 0.8s, 3.5s; }
.star:nth-child(10) { animation-delay: 2.3s, 0.8s; }

.glow-blue { filter: drop-shadow(0 0 1px #06b6d4); }
.glow-cyan { filter: drop-shadow(0 0 1px #22d3ee); }
.glow-white { filter: drop-shadow(0 0 1.5px #fff); }

@keyframes twinkle {
  0%, 100% { opacity: 0; }
  50% { opacity: 1; }
}
@keyframes float {
  0%, 100% { transform: translate(0, 0); }
  50% { transform: translate(-2px, 0px); }
}
</style>

<!-- Stars scaled to fit 115x25 -->
<circle class="star glow-white" cx="12" cy="7.5" r="0.4" />
<circle class="star glow-cyan" cx="26" cy="12.5" r="0.3" />
<circle class="star glow-blue" cx="46" cy="6.5" r="0.35" />
<circle class="star glow-white" cx="69" cy="15" r="0.25" />
<circle class="star glow-cyan" cx="86" cy="9" r="0.4" />
<circle class="star glow-blue" cx="103" cy="11" r="0.3" />
<circle class="star glow-white" cx="34" cy="17.5" r="0.35" />
<circle class="star glow-cyan" cx="57" cy="20" r="0.25" />
<circle class="star glow-blue" cx="80" cy="3.5" r="0.3" />
<circle class="star glow-white" cx="17" cy="21.5" r="0.4" />

<!-- Additional layer with varied timing -->
<circle class="star glow-cyan" cx="40" cy="10" r="0.2" style="animation-duration: 4s, 10s; animation-delay: 1.2s, 2.8s;" />
<circle class="star glow-blue" cx="63" cy="13.5" r="0.25" style="animation-duration: 3.5s, 9s; animation-delay: 0.7s, 1.3s;" />
<circle class="star glow-white" cx="92" cy="19" r="0.3" style="animation-duration: 4.5s, 11s; animation-delay: 2.1s, 3.7s;" />
<circle class="star glow-cyan" cx="52" cy="5" r="0.25" style="animation-duration: 3.8s, 7.5s; animation-delay: 1.6s, 0.9s;" />
<circle class="star glow-blue" cx="75" cy="22.5" r="0.3" style="animation-duration: 4.2s, 8.5s; animation-delay: 0.4s, 2.2s;" />

<!--Sunflower-->
<g transform="scale(0.03) translate(3650, 600)">
  <path d="M67.8984 79.117C67.8984 79.117 95.3815 73.9285 107.774 79.6291C117.394 84.0547 134.999 104.134 134.999 104.134C134.999 104.134 112.102 106.214 98.8838 101.293C86.2861 96.604 67.8984 79.117 67.8984 79.117Z" fill="#EBEE29"/>
  <path d="M0.167504 101.441C0.167504 101.441 -2.85759 89.0801 16.8036 78.3011C36.465 67.522 53.4792 78.9272 53.4792 78.9272C53.4792 78.9272 50.6828 99.2187 39.4752 102.006C28.2674 104.794 0.167504 101.441 0.167504 101.441Z" fill="#EBEE29"/>
  <path d="M55.3779 0C55.3779 0 76.9921 21.6631 79.5644 32.8178C82.1366 43.9725 72.5059 70.5485 72.5059 70.5485C72.5059 70.5485 54.1952 66.3186 50.3844 53.2717C46.5736 40.2249 55.3779 0 55.3779 0Z" fill="#EBEE29"/>
  <path d="M69.1323 80.8416C69.1323 80.8416 77.2442 108.336 71.1507 120.13C65.0574 131.924 42.0402 147.387 42.0402 147.387C42.0402 147.387 24.6478 113.747 35.5964 103.261C46.5452 92.7751 69.1323 80.8416 69.1323 80.8416Z" fill="#EBEE29"/>
  <path d="M55.4771 76.7647C55.4771 76.7647 52.5359 48.6644 42.2556 42.5582C31.9753 36.4521 8.73633 32.4822 8.73633 32.4822C8.73633 32.4822 16.6254 54.8571 24.2591 61.4541C31.8927 68.051 55.4771 76.7647 55.4771 76.7647Z" fill="#EBEE29"/>
  <path d="M61.8398 70.8611C61.8398 70.8611 93.5298 79.2667 104.394 70.6366C115.259 62.0065 129.154 38.4407 129.154 38.4407C129.154 38.4407 101.632 37.7642 91.3269 43.3209C81.0221 48.878 61.8398 70.8611 61.8398 70.8611Z" fill="#EBEE29"/>
  <path d="M70.5957 96.6206C70.5957 96.6206 80.0314 89.9678 95.6525 102.998C111.273 116.028 107.283 134.177 107.283 134.177C107.283 134.177 89.2203 138.543 83.1503 130.003C77.0804 121.462 70.5957 96.6206 70.5957 96.6206Z" fill="#EBEE29"/>
  <path d="M28.4299 87.3934C32.4228 105.901 50.6626 117.667 69.1698 113.674C87.677 109.681 99.4432 91.4412 95.4504 72.934C91.4575 54.4267 73.2176 42.6604 54.7105 46.6533C36.2033 50.6461 24.4371 68.8861 28.4299 87.3934Z" fill="#2C2005"/>
</g>
</svg>
